<?xml version="1.0" encoding="utf-8"?>
<!-- Generator: Adobe Illustrator 27.3.0, SVG Export Plug-In . SVG Version: 6.00 Build 0)  -->
<svg version="1.1" id="Layer_1" xmlns="http://www.w3.org/2000/svg" xmlns:xlink="http://www.w3.org/1999/xlink" x="0px" y="0px"
	 viewBox="0 0 1920 1080" style="enable-background:new 0 0 1920 1080;" xml:space="preserve">
<style type="text/css">
	.st0{fill:#020E26;}
	.st1{fill:#FFFFFF;}
	.st2{fill:#1BF28E;}
	.st3{fill:#041840;}
</style>
<rect x="931" y="436.1" class="st0" width="374" height="261.3"/>
<g>
	<g>
		<path class="st1" d="M1088.4,534.8h36.2v5h-30.7v21.1h28.7v5h-28.7V589h32v5h-37.5V534.8z"/>
		<path class="st1" d="M1186.7,584.7c-2.8,3.8-6.1,6.6-9.9,8.3c-3.7,1.7-7.8,2.5-12.1,2.5c-4.5,0-8.6-0.8-12.4-2.3
			c-3.8-1.5-7-3.7-9.7-6.4s-4.8-6-6.3-9.9c-1.5-3.8-2.3-8-2.3-12.5s0.8-8.7,2.3-12.5c1.5-3.8,3.6-7.1,6.3-9.8s5.9-4.9,9.7-6.5
			c3.8-1.6,7.9-2.3,12.4-2.3c4,0,7.8,0.7,11.2,2.1s6.5,3.8,9.2,7.1l-4.5,3.8c-1.8-2.8-4.2-4.8-7.1-6.1c-2.9-1.3-5.8-1.9-8.8-1.9
			c-3.8,0-7.3,0.7-10.4,2c-3.1,1.3-5.7,3.2-7.9,5.5c-2.2,2.3-3.8,5.1-5,8.3c-1.2,3.2-1.8,6.6-1.8,10.3s0.6,7.1,1.8,10.3
			c1.2,3.2,2.8,5.9,5,8.3c2.2,2.3,4.8,4.2,7.9,5.5s6.6,2,10.4,2c1.5,0,3.1-0.2,4.7-0.5c1.6-0.4,3.2-0.9,4.7-1.7
			c1.5-0.8,3-1.7,4.4-2.8c1.4-1.1,2.6-2.5,3.7-4.1L1186.7,584.7z"/>
		<path class="st1" d="M1192.9,564.4c0-4.5,0.8-8.7,2.3-12.5c1.5-3.8,3.6-7.1,6.3-9.8s5.9-4.9,9.7-6.5c3.8-1.6,7.9-2.3,12.4-2.3
			c4.5,0,8.6,0.8,12.4,2.3c3.8,1.6,7,3.7,9.7,6.5c2.7,2.8,4.8,6,6.3,9.8c1.5,3.8,2.3,7.9,2.3,12.5s-0.8,8.7-2.3,12.5
			c-1.5,3.8-3.6,7.1-6.3,9.9c-2.7,2.8-5.9,4.9-9.7,6.4c-3.8,1.5-7.9,2.3-12.4,2.3c-4.5,0-8.6-0.8-12.4-2.3c-3.8-1.5-7-3.7-9.7-6.4
			s-4.8-6-6.3-9.9C1193.7,573.1,1192.9,568.9,1192.9,564.4z M1198.4,564.4c0,3.7,0.6,7.1,1.8,10.3c1.2,3.2,2.8,5.9,5,8.3
			c2.2,2.3,4.8,4.2,7.9,5.5s6.6,2,10.4,2s7.3-0.7,10.4-2s5.7-3.2,7.9-5.5s3.8-5.1,5-8.3c1.2-3.2,1.8-6.6,1.8-10.3s-0.6-7.1-1.8-10.3
			c-1.2-3.2-2.8-5.9-5-8.3s-4.8-4.2-7.9-5.5c-3.1-1.3-6.6-2-10.4-2s-7.3,0.7-10.4,2c-3.1,1.3-5.7,3.2-7.9,5.5
			c-2.2,2.3-3.8,5.1-5,8.3C1199,557.3,1198.4,560.7,1198.4,564.4z"/>
	</g>
	<g>
		<path class="st1" d="M999.1,618.8v-8.1H996V610h7v0.7h-3.1v8.1H999.1z"/>
		<path class="st1" d="M1004.5,618.8V610h0.8v8.8H1004.5z M1005,614.7V614h6.3v0.7H1005z M1010.9,618.8V610h0.8v8.8H1010.9z"/>
		<path class="st1" d="M1014.2,618.8V610h5.4v0.7h-4.6v3.3h4.4v0.7h-4.4v3.5h4.6v0.7H1014.2z"/>
		<path class="st1" d="M1025,618.8V610h3.4c0.9,0,1.6,0.2,2.1,0.6s0.8,1,0.8,1.8c0,0.7-0.3,1.3-0.8,1.7c-0.5,0.4-1.2,0.6-2.1,0.6
			l0.9-0.2c0.3,0,0.6,0.1,0.8,0.3c0.2,0.2,0.4,0.5,0.6,0.8l1.1,3h-0.8l-1.1-2.9c-0.2-0.4-0.4-0.7-0.6-0.8c-0.3-0.1-0.6-0.2-1-0.2
			h-2.5v3.9H1025z M1025.7,614.2h2.6c0.7,0,1.3-0.2,1.6-0.5c0.4-0.3,0.5-0.8,0.5-1.3c0-0.6-0.2-1-0.5-1.3c-0.4-0.3-0.9-0.4-1.6-0.4
			h-2.6V614.2z"/>
		<path class="st1" d="M1033.7,618.8V610h5.4v0.7h-4.6v3.3h4.4v0.7h-4.4v3.5h4.6v0.7H1033.7z"/>
		<path class="st1" d="M1043.7,618.9c-0.5,0-0.9,0-1.3-0.1c-0.4-0.1-0.7-0.2-1.1-0.4c-0.3-0.2-0.6-0.4-0.9-0.6l0.3-0.6
			c0.4,0.4,0.9,0.7,1.3,0.8s1,0.2,1.6,0.2c0.7,0,1.3-0.2,1.7-0.5c0.4-0.3,0.6-0.7,0.6-1.3c0-0.3-0.1-0.6-0.3-0.8
			c-0.2-0.2-0.5-0.4-0.8-0.5c-0.3-0.1-0.7-0.2-1.1-0.3c-0.4-0.1-0.8-0.2-1.1-0.3c-0.4-0.1-0.7-0.3-1-0.4c-0.3-0.2-0.5-0.4-0.7-0.7
			c-0.2-0.3-0.3-0.6-0.3-1.1c0-0.5,0.1-0.9,0.4-1.3c0.2-0.4,0.6-0.7,1.1-0.9c0.5-0.2,1-0.3,1.7-0.3c0.4,0,0.8,0,1.1,0.1
			c0.4,0.1,0.7,0.2,1,0.4c0.3,0.2,0.6,0.4,0.8,0.6l-0.3,0.6c-0.4-0.4-0.8-0.6-1.3-0.8c-0.4-0.2-0.9-0.3-1.4-0.3
			c-0.7,0-1.3,0.2-1.7,0.5s-0.6,0.8-0.6,1.3c0,0.4,0.1,0.6,0.3,0.9c0.2,0.2,0.4,0.4,0.8,0.5s0.7,0.2,1.1,0.3
			c0.4,0.1,0.8,0.2,1.2,0.3c0.4,0.1,0.7,0.2,1.1,0.4c0.3,0.2,0.6,0.4,0.8,0.6s0.3,0.6,0.3,1.1c0,0.5-0.1,0.9-0.4,1.3
			c-0.3,0.4-0.6,0.6-1.1,0.8S1044.4,618.9,1043.7,618.9z"/>
		<path class="st1" d="M1048.8,618.8V610h5.4v0.7h-4.6v3.3h4.4v0.7h-4.4v3.5h4.6v0.7H1048.8z"/>
		<path class="st1" d="M1056,618.8h-0.8l3.8-8.8h0.7l3.8,8.8h-0.8l-3.5-8.2h0.3L1056,618.8z M1056.8,616.5l0.2-0.7h4.7l0.3,0.7
			H1056.8z"/>
		<path class="st1" d="M1065.2,618.8V610h3.4c0.9,0,1.6,0.2,2.1,0.6s0.8,1,0.8,1.8c0,0.7-0.3,1.3-0.8,1.7c-0.5,0.4-1.2,0.6-2.1,0.6
			l0.9-0.2c0.3,0,0.6,0.1,0.8,0.3c0.2,0.2,0.4,0.5,0.6,0.8l1.1,3h-0.8l-1.1-2.9c-0.2-0.4-0.4-0.7-0.6-0.8c-0.3-0.1-0.6-0.2-1-0.2
			h-2.5v3.9H1065.2z M1066,614.2h2.6c0.7,0,1.3-0.2,1.6-0.5c0.4-0.3,0.5-0.8,0.5-1.3c0-0.6-0.2-1-0.5-1.3c-0.4-0.3-0.9-0.4-1.6-0.4
			h-2.6V614.2z"/>
		<path class="st1" d="M1077.5,618.9c-0.8,0-1.5-0.2-2.1-0.5c-0.6-0.4-1-0.9-1.4-1.5c-0.3-0.7-0.5-1.5-0.5-2.4s0.2-1.7,0.5-2.4
			s0.8-1.2,1.4-1.5c0.6-0.4,1.3-0.5,2.1-0.5c0.6,0,1.2,0.1,1.7,0.3c0.5,0.2,0.9,0.5,1.3,0.9l-0.3,0.6c-0.4-0.4-0.9-0.6-1.3-0.8
			c-0.4-0.2-0.9-0.2-1.4-0.2c-1,0-1.8,0.3-2.3,1s-0.8,1.6-0.8,2.8c0,1.2,0.3,2.2,0.8,2.8s1.3,1,2.3,1c0.5,0,1-0.1,1.4-0.2
			c0.4-0.2,0.8-0.4,1.3-0.8l0.3,0.6c-0.4,0.4-0.8,0.7-1.3,0.9C1078.7,618.8,1078.1,618.9,1077.5,618.9z"/>
		<path class="st1" d="M1082.6,618.8V610h0.8v8.8H1082.6z M1083,614.7V614h6.3v0.7H1083z M1088.9,618.8V610h0.8v8.8H1088.9z"/>
		<path class="st1" d="M1095.6,618.8V610h5.4v0.7h-4.6v3.3h4.4v0.7h-4.4v3.5h4.6v0.7H1095.6z"/>
		<path class="st1" d="M1106.6,618.9c-0.8,0-1.5-0.2-2.1-0.5c-0.6-0.4-1-0.9-1.4-1.5c-0.3-0.7-0.5-1.5-0.5-2.4s0.2-1.7,0.5-2.4
			s0.8-1.2,1.4-1.5c0.6-0.4,1.3-0.5,2.1-0.5c0.6,0,1.2,0.1,1.7,0.3c0.5,0.2,0.9,0.5,1.3,0.9l-0.3,0.6c-0.4-0.4-0.9-0.6-1.3-0.8
			c-0.4-0.2-0.9-0.2-1.4-0.2c-1,0-1.8,0.3-2.3,1s-0.8,1.6-0.8,2.8c0,1.2,0.3,2.2,0.8,2.8s1.3,1,2.3,1c0.5,0,1-0.1,1.4-0.2
			c0.4-0.2,0.8-0.4,1.3-0.8l0.3,0.6c-0.4,0.4-0.8,0.7-1.3,0.9C1107.7,618.8,1107.2,618.9,1106.6,618.9z"/>
		<path class="st1" d="M1115,618.9c-0.8,0-1.5-0.2-2.1-0.5c-0.6-0.4-1-0.9-1.3-1.5c-0.3-0.7-0.5-1.5-0.5-2.4s0.2-1.7,0.5-2.4
			c0.3-0.7,0.8-1.2,1.3-1.5c0.6-0.4,1.3-0.5,2.1-0.5c0.8,0,1.5,0.2,2.1,0.5c0.6,0.4,1,0.9,1.3,1.5s0.5,1.5,0.5,2.4s-0.2,1.7-0.5,2.4
			c-0.3,0.7-0.8,1.2-1.4,1.5C1116.5,618.7,1115.8,618.9,1115,618.9z M1115,618.2c1,0,1.7-0.3,2.3-1c0.5-0.7,0.8-1.6,0.8-2.8
			c0-1.2-0.3-2.1-0.8-2.8c-0.5-0.7-1.3-1-2.3-1c-1,0-1.8,0.3-2.3,1c-0.5,0.7-0.8,1.6-0.8,2.8c0,1.2,0.3,2.1,0.8,2.8
			C1113.3,617.9,1114,618.2,1115,618.2z"/>
		<path class="st1" d="M1123.8,618.9c-0.5,0-0.9,0-1.3-0.1c-0.4-0.1-0.7-0.2-1.1-0.4c-0.3-0.2-0.6-0.4-0.9-0.6l0.3-0.6
			c0.4,0.4,0.9,0.7,1.3,0.8s1,0.2,1.6,0.2c0.7,0,1.3-0.2,1.7-0.5c0.4-0.3,0.6-0.7,0.6-1.3c0-0.3-0.1-0.6-0.3-0.8
			c-0.2-0.2-0.5-0.4-0.8-0.5c-0.3-0.1-0.7-0.2-1.1-0.3c-0.4-0.1-0.8-0.2-1.1-0.3c-0.4-0.1-0.7-0.3-1-0.4c-0.3-0.2-0.5-0.4-0.7-0.7
			c-0.2-0.3-0.3-0.6-0.3-1.1c0-0.5,0.1-0.9,0.4-1.3c0.2-0.4,0.6-0.7,1.1-0.9c0.5-0.2,1-0.3,1.7-0.3c0.4,0,0.8,0,1.1,0.1
			c0.4,0.1,0.7,0.2,1,0.4c0.3,0.2,0.6,0.4,0.8,0.6l-0.3,0.6c-0.4-0.4-0.8-0.6-1.3-0.8c-0.4-0.2-0.9-0.3-1.4-0.3
			c-0.7,0-1.3,0.2-1.7,0.5s-0.6,0.8-0.6,1.3c0,0.4,0.1,0.6,0.3,0.9c0.2,0.2,0.4,0.4,0.8,0.5s0.7,0.2,1.1,0.3
			c0.4,0.1,0.8,0.2,1.2,0.3c0.4,0.1,0.7,0.2,1.1,0.4c0.3,0.2,0.6,0.4,0.8,0.6s0.3,0.6,0.3,1.1c0,0.5-0.1,0.9-0.4,1.3
			c-0.3,0.4-0.6,0.6-1.1,0.8S1124.4,618.9,1123.8,618.9z"/>
		<path class="st1" d="M1130.8,618.8v-3.9l0.2,0.6l-3.6-5.4h0.9l3,4.7h-0.3l3-4.7h0.9l-3.6,5.4l0.2-0.6v3.9H1130.8z"/>
		<path class="st1" d="M1138.7,618.9c-0.5,0-0.9,0-1.3-0.1c-0.4-0.1-0.7-0.2-1.1-0.4c-0.3-0.2-0.6-0.4-0.9-0.6l0.3-0.6
			c0.4,0.4,0.9,0.7,1.3,0.8s1,0.2,1.6,0.2c0.7,0,1.3-0.2,1.7-0.5c0.4-0.3,0.6-0.7,0.6-1.3c0-0.3-0.1-0.6-0.3-0.8
			c-0.2-0.2-0.5-0.4-0.8-0.5c-0.3-0.1-0.7-0.2-1.1-0.3c-0.4-0.1-0.8-0.2-1.1-0.3c-0.4-0.1-0.7-0.3-1-0.4c-0.3-0.2-0.5-0.4-0.7-0.7
			c-0.2-0.3-0.3-0.6-0.3-1.1c0-0.5,0.1-0.9,0.4-1.3c0.2-0.4,0.6-0.7,1.1-0.9c0.5-0.2,1-0.3,1.7-0.3c0.4,0,0.8,0,1.1,0.1
			c0.4,0.1,0.7,0.2,1,0.4c0.3,0.2,0.6,0.4,0.8,0.6l-0.3,0.6c-0.4-0.4-0.8-0.6-1.3-0.8c-0.4-0.2-0.9-0.3-1.4-0.3
			c-0.7,0-1.3,0.2-1.7,0.5s-0.6,0.8-0.6,1.3c0,0.4,0.1,0.6,0.3,0.9c0.2,0.2,0.4,0.4,0.8,0.5s0.7,0.2,1.1,0.3
			c0.4,0.1,0.8,0.2,1.2,0.3c0.4,0.1,0.7,0.2,1.1,0.4c0.3,0.2,0.6,0.4,0.8,0.6s0.3,0.6,0.3,1.1c0,0.5-0.1,0.9-0.4,1.3
			c-0.3,0.4-0.6,0.6-1.1,0.8S1139.3,618.9,1138.7,618.9z"/>
		<path class="st1" d="M1145.7,618.8v-8.1h-3.1V610h7v0.7h-3.1v8.1H1145.7z"/>
		<path class="st1" d="M1151.2,618.8V610h5.4v0.7h-4.6v3.3h4.4v0.7h-4.4v3.5h4.6v0.7H1151.2z"/>
		<path class="st1" d="M1158.6,618.8V610h0.6l3.7,8.3h-0.4l3.6-8.3h0.6v8.8h-0.7v-7.9l0.4,0l-3.4,7.8h-0.6l-3.5-7.8l0.4,0l0,7.9
			H1158.6z"/>
		<path class="st1" d="M1172.7,618.8V610h5.3v0.7h-4.5v3.3h4.3v0.7h-4.3v4.1H1172.7z"/>
		<path class="st1" d="M1179.8,618.8V610h3.4c0.9,0,1.6,0.2,2.1,0.6s0.8,1,0.8,1.8c0,0.7-0.3,1.3-0.8,1.7c-0.5,0.4-1.2,0.6-2.1,0.6
			l0.9-0.2c0.3,0,0.6,0.1,0.8,0.3c0.2,0.2,0.4,0.5,0.6,0.8l1.1,3h-0.8l-1.1-2.9c-0.2-0.4-0.4-0.7-0.6-0.8c-0.3-0.1-0.6-0.2-1-0.2
			h-2.5v3.9H1179.8z M1180.5,614.2h2.6c0.7,0,1.3-0.2,1.6-0.5c0.4-0.3,0.5-0.8,0.5-1.3c0-0.6-0.2-1-0.5-1.3
			c-0.4-0.3-0.9-0.4-1.6-0.4h-2.6V614.2z"/>
		<path class="st1" d="M1188.4,618.8h-0.8l3.8-8.8h0.7l3.8,8.8h-0.8l-3.5-8.2h0.3L1188.4,618.8z M1189.2,616.5l0.2-0.7h4.7l0.3,0.7
			H1189.2z"/>
		<path class="st1" d="M1197.6,618.8V610h0.6l3.7,8.3h-0.4l3.6-8.3h0.6v8.8h-0.7v-7.9l0.4,0l-3.4,7.8h-0.6l-3.5-7.8l0.4,0l0,7.9
			H1197.6z"/>
		<path class="st1" d="M1208.3,618.8V610h5.4v0.7h-4.6v3.3h4.4v0.7h-4.4v3.5h4.6v0.7H1208.3z"/>
		<path class="st1" d="M1218,618.8l-3-8.8h0.8l2.8,8.2h-0.4l2.9-8.2l0.6,0l2.8,8.2h-0.4l2.8-8.2h0.8l-3.1,8.8h-0.7l-2.8-7.9h0.3
			l-2.8,7.9H1218z"/>
		<path class="st1" d="M1232.8,618.9c-0.8,0-1.5-0.2-2.1-0.5c-0.6-0.4-1-0.9-1.3-1.5c-0.3-0.7-0.5-1.5-0.5-2.4s0.2-1.7,0.5-2.4
			c0.3-0.7,0.8-1.2,1.3-1.5c0.6-0.4,1.3-0.5,2.1-0.5c0.8,0,1.5,0.2,2.1,0.5c0.6,0.4,1,0.9,1.3,1.5s0.5,1.5,0.5,2.4s-0.2,1.7-0.5,2.4
			c-0.3,0.7-0.8,1.2-1.4,1.5C1234.3,618.7,1233.6,618.9,1232.8,618.9z M1232.8,618.2c1,0,1.7-0.3,2.3-1c0.5-0.7,0.8-1.6,0.8-2.8
			c0-1.2-0.3-2.1-0.8-2.8c-0.5-0.7-1.3-1-2.3-1c-1,0-1.8,0.3-2.3,1c-0.5,0.7-0.8,1.6-0.8,2.8c0,1.2,0.3,2.1,0.8,2.8
			C1231.1,617.9,1231.9,618.2,1232.8,618.2z"/>
		<path class="st1" d="M1238.9,618.8V610h3.4c0.9,0,1.6,0.2,2.1,0.6s0.8,1,0.8,1.8c0,0.7-0.3,1.3-0.8,1.7c-0.5,0.4-1.2,0.6-2.1,0.6
			l0.9-0.2c0.3,0,0.6,0.1,0.8,0.3c0.2,0.2,0.4,0.5,0.6,0.8l1.1,3h-0.8l-1.1-2.9c-0.2-0.4-0.4-0.7-0.6-0.8c-0.3-0.1-0.6-0.2-1-0.2
			h-2.5v3.9H1238.9z M1239.7,614.2h2.6c0.7,0,1.3-0.2,1.6-0.5c0.4-0.3,0.5-0.8,0.5-1.3c0-0.6-0.2-1-0.5-1.3
			c-0.4-0.3-0.9-0.4-1.6-0.4h-2.6V614.2z"/>
		<path class="st1" d="M1247.7,618.8V610h0.8v8.8H1247.7z M1253.1,618.8l-5-4.4l4.8-4.3h1l-5,4.6l0-0.5l5.3,4.7H1253.1z"/>
	</g>
	<g>
		<path class="st1" d="M1035.6,585.2l-9.9-14.4c4.7-0.8,8.4-2.6,11.1-5.4c2.9-3.1,4.4-7.1,4.4-12.2c0-5.8-1.8-10.3-5.3-13.7
			c-3.6-3.4-8.5-5.1-14.7-5.1h-13.3v8.9h10.9c8.2,0,12.3,3.3,12.3,9.9c0,6.1-3.8,9.2-11.4,9.2h-11.9v8.9h6.3l16.1,22.7h45.9v-8.8
			H1035.6z"/>
		<rect x="1048.4" y="557.8" class="st1" width="23.1" height="8.9"/>
		<rect x="1048.4" y="534.5" class="st2" width="25.6" height="8.9"/>
	</g>
</g>
<g>
	<g>
		<path class="st3" d="M719.4,534.8h36.2v5h-30.7v21.1h28.7v5h-28.7V589h32v5h-37.5V534.8z"/>
		<path class="st3" d="M817.7,584.7c-2.8,3.8-6.1,6.6-9.9,8.3c-3.7,1.7-7.8,2.5-12.1,2.5c-4.5,0-8.6-0.8-12.4-2.3
			c-3.8-1.5-7-3.7-9.7-6.4s-4.8-6-6.3-9.9c-1.5-3.8-2.3-8-2.3-12.5s0.8-8.7,2.3-12.5c1.5-3.8,3.6-7.1,6.3-9.8s5.9-4.9,9.7-6.5
			c3.8-1.6,7.9-2.3,12.4-2.3c4,0,7.8,0.7,11.2,2.1s6.5,3.8,9.2,7.1l-4.5,3.8c-1.8-2.8-4.2-4.8-7.1-6.1c-2.9-1.3-5.8-1.9-8.8-1.9
			c-3.8,0-7.3,0.7-10.4,2c-3.1,1.3-5.7,3.2-7.9,5.5c-2.2,2.3-3.8,5.1-5,8.3c-1.2,3.2-1.8,6.6-1.8,10.3s0.6,7.1,1.8,10.3
			c1.2,3.2,2.8,5.9,5,8.3c2.2,2.3,4.8,4.2,7.9,5.5s6.6,2,10.4,2c1.5,0,3.1-0.2,4.7-0.5c1.6-0.4,3.2-0.9,4.7-1.7
			c1.5-0.8,3-1.7,4.4-2.8c1.4-1.1,2.6-2.5,3.7-4.1L817.7,584.7z"/>
		<path class="st3" d="M823.9,564.4c0-4.5,0.8-8.7,2.3-12.5c1.5-3.8,3.6-7.1,6.3-9.8s5.9-4.9,9.7-6.5c3.8-1.6,7.9-2.3,12.4-2.3
			c4.5,0,8.6,0.8,12.4,2.3c3.8,1.6,7,3.7,9.7,6.5c2.7,2.8,4.8,6,6.3,9.8c1.5,3.8,2.3,7.9,2.3,12.5s-0.8,8.7-2.3,12.5
			c-1.5,3.8-3.6,7.1-6.3,9.9c-2.7,2.8-5.9,4.9-9.7,6.4c-3.8,1.5-7.9,2.3-12.4,2.3c-4.5,0-8.6-0.8-12.4-2.3c-3.8-1.5-7-3.7-9.7-6.4
			s-4.8-6-6.3-9.9C824.7,573.1,823.9,568.9,823.9,564.4z M829.4,564.4c0,3.7,0.6,7.1,1.8,10.3c1.2,3.2,2.8,5.9,5,8.3
			c2.2,2.3,4.8,4.2,7.9,5.5s6.6,2,10.4,2s7.3-0.7,10.4-2s5.7-3.2,7.9-5.5s3.8-5.1,5-8.3c1.2-3.2,1.8-6.6,1.8-10.3s-0.6-7.1-1.8-10.3
			c-1.2-3.2-2.8-5.9-5-8.3s-4.8-4.2-7.9-5.5c-3.1-1.3-6.6-2-10.4-2s-7.3,0.7-10.4,2c-3.1,1.3-5.7,3.2-7.9,5.5
			c-2.2,2.3-3.8,5.1-5,8.3C830,557.3,829.4,560.7,829.4,564.4z"/>
	</g>
	<g>
		<path class="st0" d="M630.1,618.8v-8.1H627V610h7v0.7h-3.1v8.1H630.1z"/>
		<path class="st0" d="M635.5,618.8V610h0.8v8.8H635.5z M636,614.7V614h6.3v0.7H636z M641.9,618.8V610h0.8v8.8H641.9z"/>
		<path class="st0" d="M645.2,618.8V610h5.4v0.7h-4.6v3.3h4.4v0.7h-4.4v3.5h4.6v0.7H645.2z"/>
		<path class="st0" d="M656,618.8V610h3.4c0.9,0,1.6,0.2,2.1,0.6s0.8,1,0.8,1.8c0,0.7-0.3,1.3-0.8,1.7c-0.5,0.4-1.2,0.6-2.1,0.6
			l0.9-0.2c0.3,0,0.6,0.1,0.8,0.3c0.2,0.2,0.4,0.5,0.6,0.8l1.1,3h-0.8l-1.1-2.9c-0.2-0.4-0.4-0.7-0.6-0.8c-0.3-0.1-0.6-0.2-1-0.2
			h-2.5v3.9H656z M656.7,614.2h2.6c0.7,0,1.3-0.2,1.6-0.5c0.4-0.3,0.5-0.8,0.5-1.3c0-0.6-0.2-1-0.5-1.3c-0.4-0.3-0.9-0.4-1.6-0.4
			h-2.6V614.2z"/>
		<path class="st0" d="M664.7,618.8V610h5.4v0.7h-4.6v3.3h4.4v0.7h-4.4v3.5h4.6v0.7H664.7z"/>
		<path class="st0" d="M674.7,618.9c-0.5,0-0.9,0-1.3-0.1c-0.4-0.1-0.7-0.2-1.1-0.4c-0.3-0.2-0.6-0.4-0.9-0.6l0.3-0.6
			c0.4,0.4,0.9,0.7,1.3,0.8s1,0.2,1.6,0.2c0.7,0,1.3-0.2,1.7-0.5c0.4-0.3,0.6-0.7,0.6-1.3c0-0.3-0.1-0.6-0.3-0.8
			c-0.2-0.2-0.5-0.4-0.8-0.5c-0.3-0.1-0.7-0.2-1.1-0.3c-0.4-0.1-0.8-0.2-1.1-0.3c-0.4-0.1-0.7-0.3-1-0.4c-0.3-0.2-0.5-0.4-0.7-0.7
			c-0.2-0.3-0.3-0.6-0.3-1.1c0-0.5,0.1-0.9,0.4-1.3c0.2-0.4,0.6-0.7,1.1-0.9c0.5-0.2,1-0.3,1.7-0.3c0.4,0,0.8,0,1.1,0.1
			c0.4,0.1,0.7,0.2,1,0.4c0.3,0.2,0.6,0.4,0.8,0.6l-0.3,0.6c-0.4-0.4-0.8-0.6-1.3-0.8c-0.4-0.2-0.9-0.3-1.4-0.3
			c-0.7,0-1.3,0.2-1.7,0.5s-0.6,0.8-0.6,1.3c0,0.4,0.1,0.6,0.3,0.9c0.2,0.2,0.4,0.4,0.8,0.5s0.7,0.2,1.1,0.3
			c0.4,0.1,0.8,0.2,1.2,0.3c0.4,0.1,0.7,0.2,1.1,0.4c0.3,0.2,0.6,0.4,0.8,0.6s0.3,0.6,0.3,1.1c0,0.5-0.1,0.9-0.4,1.3
			c-0.3,0.4-0.6,0.6-1.1,0.8S675.4,618.9,674.7,618.9z"/>
		<path class="st0" d="M679.8,618.8V610h5.4v0.7h-4.6v3.3h4.4v0.7h-4.4v3.5h4.6v0.7H679.8z"/>
		<path class="st0" d="M687,618.8h-0.8l3.8-8.8h0.7l3.8,8.8h-0.8l-3.5-8.2h0.3L687,618.8z M687.8,616.5l0.2-0.7h4.7l0.3,0.7H687.8z"
			/>
		<path class="st0" d="M696.2,618.8V610h3.4c0.9,0,1.6,0.2,2.1,0.6s0.8,1,0.8,1.8c0,0.7-0.3,1.3-0.8,1.7c-0.5,0.4-1.2,0.6-2.1,0.6
			l0.9-0.2c0.3,0,0.6,0.1,0.8,0.3c0.2,0.2,0.4,0.5,0.6,0.8l1.1,3h-0.8l-1.1-2.9c-0.2-0.4-0.4-0.7-0.6-0.8c-0.3-0.1-0.6-0.2-1-0.2
			H697v3.9H696.2z M697,614.2h2.6c0.7,0,1.3-0.2,1.6-0.5c0.4-0.3,0.5-0.8,0.5-1.3c0-0.6-0.2-1-0.5-1.3c-0.4-0.3-0.9-0.4-1.6-0.4H697
			V614.2z"/>
		<path class="st0" d="M708.5,618.9c-0.8,0-1.5-0.2-2.1-0.5c-0.6-0.4-1-0.9-1.4-1.5c-0.3-0.7-0.5-1.5-0.5-2.4s0.2-1.7,0.5-2.4
			s0.8-1.2,1.4-1.5c0.6-0.4,1.3-0.5,2.1-0.5c0.6,0,1.2,0.1,1.7,0.3c0.5,0.2,0.9,0.5,1.3,0.9l-0.3,0.6c-0.4-0.4-0.9-0.6-1.3-0.8
			c-0.4-0.2-0.9-0.2-1.4-0.2c-1,0-1.8,0.3-2.3,1s-0.8,1.6-0.8,2.8c0,1.2,0.3,2.2,0.8,2.8s1.3,1,2.3,1c0.5,0,1-0.1,1.4-0.2
			c0.4-0.2,0.8-0.4,1.3-0.8l0.3,0.6c-0.4,0.4-0.8,0.7-1.3,0.9C709.7,618.8,709.1,618.9,708.5,618.9z"/>
		<path class="st0" d="M713.6,618.8V610h0.8v8.8H713.6z M714,614.7V614h6.3v0.7H714z M719.9,618.8V610h0.8v8.8H719.9z"/>
		<path class="st0" d="M726.6,618.8V610h5.4v0.7h-4.6v3.3h4.4v0.7h-4.4v3.5h4.6v0.7H726.6z"/>
		<path class="st0" d="M737.6,618.9c-0.8,0-1.5-0.2-2.1-0.5c-0.6-0.4-1-0.9-1.4-1.5c-0.3-0.7-0.5-1.5-0.5-2.4s0.2-1.7,0.5-2.4
			s0.8-1.2,1.4-1.5c0.6-0.4,1.3-0.5,2.1-0.5c0.6,0,1.2,0.1,1.7,0.3c0.5,0.2,0.9,0.5,1.3,0.9l-0.3,0.6c-0.4-0.4-0.9-0.6-1.3-0.8
			c-0.4-0.2-0.9-0.2-1.4-0.2c-1,0-1.8,0.3-2.3,1s-0.8,1.6-0.8,2.8c0,1.2,0.3,2.2,0.8,2.8s1.3,1,2.3,1c0.5,0,1-0.1,1.4-0.2
			c0.4-0.2,0.8-0.4,1.3-0.8l0.3,0.6c-0.4,0.4-0.8,0.7-1.3,0.9C738.7,618.8,738.2,618.9,737.6,618.9z"/>
		<path class="st0" d="M746,618.9c-0.8,0-1.5-0.2-2.1-0.5c-0.6-0.4-1-0.9-1.3-1.5c-0.3-0.7-0.5-1.5-0.5-2.4s0.2-1.7,0.5-2.4
			c0.3-0.7,0.8-1.2,1.3-1.5c0.6-0.4,1.3-0.5,2.1-0.5c0.8,0,1.5,0.2,2.1,0.5c0.6,0.4,1,0.9,1.3,1.5s0.5,1.5,0.5,2.4s-0.2,1.7-0.5,2.4
			c-0.3,0.7-0.8,1.2-1.4,1.5C747.5,618.7,746.8,618.9,746,618.9z M746,618.2c1,0,1.7-0.3,2.3-1c0.5-0.7,0.8-1.6,0.8-2.8
			c0-1.2-0.3-2.1-0.8-2.8c-0.5-0.7-1.3-1-2.3-1c-1,0-1.8,0.3-2.3,1c-0.5,0.7-0.8,1.6-0.8,2.8c0,1.2,0.3,2.1,0.8,2.8
			C744.3,617.9,745,618.2,746,618.2z"/>
		<path class="st0" d="M754.8,618.9c-0.5,0-0.9,0-1.3-0.1c-0.4-0.1-0.7-0.2-1.1-0.4c-0.3-0.2-0.6-0.4-0.9-0.6l0.3-0.6
			c0.4,0.4,0.9,0.7,1.3,0.8s1,0.2,1.6,0.2c0.7,0,1.3-0.2,1.7-0.5c0.4-0.3,0.6-0.7,0.6-1.3c0-0.3-0.1-0.6-0.3-0.8
			c-0.2-0.2-0.5-0.4-0.8-0.5c-0.3-0.1-0.7-0.2-1.1-0.3c-0.4-0.1-0.8-0.2-1.1-0.3c-0.4-0.1-0.7-0.3-1-0.4c-0.3-0.2-0.5-0.4-0.7-0.7
			c-0.2-0.3-0.3-0.6-0.3-1.1c0-0.5,0.1-0.9,0.4-1.3c0.2-0.4,0.6-0.7,1.1-0.9c0.5-0.2,1-0.3,1.7-0.3c0.4,0,0.8,0,1.1,0.1
			c0.4,0.1,0.7,0.2,1,0.4c0.3,0.2,0.6,0.4,0.8,0.6l-0.3,0.6c-0.4-0.4-0.8-0.6-1.3-0.8c-0.4-0.2-0.9-0.3-1.4-0.3
			c-0.7,0-1.3,0.2-1.7,0.5s-0.6,0.8-0.6,1.3c0,0.4,0.1,0.6,0.3,0.9c0.2,0.2,0.4,0.4,0.8,0.5s0.7,0.2,1.1,0.3
			c0.4,0.1,0.8,0.2,1.2,0.3c0.4,0.1,0.7,0.2,1.1,0.4c0.3,0.2,0.6,0.4,0.8,0.6s0.3,0.6,0.3,1.1c0,0.5-0.1,0.9-0.4,1.3
			c-0.3,0.4-0.6,0.6-1.1,0.8S755.4,618.9,754.8,618.9z"/>
		<path class="st0" d="M761.8,618.8v-3.9l0.2,0.6l-3.6-5.4h0.9l3,4.7h-0.3l3-4.7h0.9l-3.6,5.4l0.2-0.6v3.9H761.8z"/>
		<path class="st0" d="M769.7,618.9c-0.5,0-0.9,0-1.3-0.1c-0.4-0.1-0.7-0.2-1.1-0.4c-0.3-0.2-0.6-0.4-0.9-0.6l0.3-0.6
			c0.4,0.4,0.9,0.7,1.3,0.8s1,0.2,1.6,0.2c0.7,0,1.3-0.2,1.7-0.5c0.4-0.3,0.6-0.7,0.6-1.3c0-0.3-0.1-0.6-0.3-0.8
			c-0.2-0.2-0.5-0.4-0.8-0.5c-0.3-0.1-0.7-0.2-1.1-0.3c-0.4-0.1-0.8-0.2-1.1-0.3c-0.4-0.1-0.7-0.3-1-0.4c-0.3-0.2-0.5-0.4-0.7-0.7
			c-0.2-0.3-0.3-0.6-0.3-1.1c0-0.5,0.1-0.9,0.4-1.3c0.2-0.4,0.6-0.7,1.1-0.9c0.5-0.2,1-0.3,1.7-0.3c0.4,0,0.8,0,1.1,0.1
			c0.4,0.1,0.7,0.2,1,0.4c0.3,0.2,0.6,0.4,0.8,0.6l-0.3,0.6c-0.4-0.4-0.8-0.6-1.3-0.8c-0.4-0.2-0.9-0.3-1.4-0.3
			c-0.7,0-1.3,0.2-1.7,0.5s-0.6,0.8-0.6,1.3c0,0.4,0.1,0.6,0.3,0.9c0.2,0.2,0.4,0.4,0.8,0.5s0.7,0.2,1.1,0.3
			c0.4,0.1,0.8,0.2,1.2,0.3c0.4,0.1,0.7,0.2,1.1,0.4c0.3,0.2,0.6,0.4,0.8,0.6s0.3,0.6,0.3,1.1c0,0.5-0.1,0.9-0.4,1.3
			c-0.3,0.4-0.6,0.6-1.1,0.8S770.3,618.9,769.7,618.9z"/>
		<path class="st0" d="M776.7,618.8v-8.1h-3.1V610h7v0.7h-3.1v8.1H776.7z"/>
		<path class="st0" d="M782.2,618.8V610h5.4v0.7h-4.6v3.3h4.4v0.7h-4.4v3.5h4.6v0.7H782.2z"/>
		<path class="st0" d="M789.6,618.8V610h0.6l3.7,8.3h-0.4l3.6-8.3h0.6v8.8H797v-7.9l0.4,0l-3.4,7.8h-0.6l-3.5-7.8l0.4,0l0,7.9H789.6
			z"/>
		<path class="st0" d="M803.7,618.8V610h5.3v0.7h-4.5v3.3h4.3v0.7h-4.3v4.1H803.7z"/>
		<path class="st0" d="M810.8,618.8V610h3.4c0.9,0,1.6,0.2,2.1,0.6s0.8,1,0.8,1.8c0,0.7-0.3,1.3-0.8,1.7c-0.5,0.4-1.2,0.6-2.1,0.6
			l0.9-0.2c0.3,0,0.6,0.1,0.8,0.3c0.2,0.2,0.4,0.5,0.6,0.8l1.1,3h-0.8l-1.1-2.9c-0.2-0.4-0.4-0.7-0.6-0.8c-0.3-0.1-0.6-0.2-1-0.2
			h-2.5v3.9H810.8z M811.5,614.2h2.6c0.7,0,1.3-0.2,1.6-0.5c0.4-0.3,0.5-0.8,0.5-1.3c0-0.6-0.2-1-0.5-1.3c-0.4-0.3-0.9-0.4-1.6-0.4
			h-2.6V614.2z"/>
		<path class="st0" d="M819.4,618.8h-0.8l3.8-8.8h0.7l3.8,8.8h-0.8l-3.5-8.2h0.3L819.4,618.8z M820.2,616.5l0.2-0.7h4.7l0.3,0.7
			H820.2z"/>
		<path class="st0" d="M828.6,618.8V610h0.6l3.7,8.3h-0.4l3.6-8.3h0.6v8.8H836v-7.9l0.4,0l-3.4,7.8h-0.6l-3.5-7.8l0.4,0l0,7.9H828.6
			z"/>
		<path class="st0" d="M839.3,618.8V610h5.4v0.7H840v3.3h4.4v0.7H840v3.5h4.6v0.7H839.3z"/>
		<path class="st0" d="M849,618.8l-3-8.8h0.8l2.8,8.2h-0.4l2.9-8.2l0.6,0l2.8,8.2h-0.4l2.8-8.2h0.8l-3.1,8.8h-0.7l-2.8-7.9h0.3
			l-2.8,7.9H849z"/>
		<path class="st0" d="M863.8,618.9c-0.8,0-1.5-0.2-2.1-0.5c-0.6-0.4-1-0.9-1.3-1.5c-0.3-0.7-0.5-1.5-0.5-2.4s0.2-1.7,0.5-2.4
			c0.3-0.7,0.8-1.2,1.3-1.5c0.6-0.4,1.3-0.5,2.1-0.5c0.8,0,1.5,0.2,2.1,0.5c0.6,0.4,1,0.9,1.3,1.5s0.5,1.5,0.5,2.4s-0.2,1.7-0.5,2.4
			c-0.3,0.7-0.8,1.2-1.4,1.5C865.3,618.7,864.6,618.9,863.8,618.9z M863.8,618.2c1,0,1.7-0.3,2.3-1c0.5-0.7,0.8-1.6,0.8-2.8
			c0-1.2-0.3-2.1-0.8-2.8c-0.5-0.7-1.3-1-2.3-1c-1,0-1.8,0.3-2.3,1c-0.5,0.7-0.8,1.6-0.8,2.8c0,1.2,0.3,2.1,0.8,2.8
			C862.1,617.9,862.9,618.2,863.8,618.2z"/>
		<path class="st0" d="M869.9,618.8V610h3.4c0.9,0,1.6,0.2,2.1,0.6s0.8,1,0.8,1.8c0,0.7-0.3,1.3-0.8,1.7c-0.5,0.4-1.2,0.6-2.1,0.6
			l0.9-0.2c0.3,0,0.6,0.1,0.8,0.3c0.2,0.2,0.4,0.5,0.6,0.8l1.1,3h-0.8l-1.1-2.9c-0.2-0.4-0.4-0.7-0.6-0.8c-0.3-0.1-0.6-0.2-1-0.2
			h-2.5v3.9H869.9z M870.7,614.2h2.6c0.7,0,1.3-0.2,1.6-0.5c0.4-0.3,0.5-0.8,0.5-1.3c0-0.6-0.2-1-0.5-1.3c-0.4-0.3-0.9-0.4-1.6-0.4
			h-2.6V614.2z"/>
		<path class="st0" d="M878.7,618.8V610h0.8v8.8H878.7z M884.1,618.8l-5-4.4l4.8-4.3h1l-5,4.6l0-0.5l5.3,4.7H884.1z"/>
	</g>
	<g>
		<path class="st3" d="M666.6,585.2l-9.9-14.4c4.7-0.8,8.4-2.6,11.1-5.4c2.9-3.1,4.4-7.1,4.4-12.2c0-5.8-1.8-10.3-5.3-13.7
			c-3.6-3.4-8.5-5.1-14.7-5.1h-13.3v8.9h10.9c8.2,0,12.3,3.3,12.3,9.9c0,6.1-3.8,9.2-11.4,9.2h-11.9v8.9h6.3l16.1,22.7H707v-8.8
			H666.6z"/>
		<rect x="679.4" y="557.8" class="st3" width="23.1" height="8.9"/>
		<rect x="679.4" y="534.5" class="st2" width="25.6" height="8.9"/>
	</g>
</g>
</svg>
